<svg width="15" height="14" viewBox="0 0 15 14" fill="none" xmlns="http://www.w3.org/2000/svg">
<path d="M11.2188 0H3.78125C1.96907 0 0.5 1.46907 0.5 3.28125V10.7188C0.5 12.5309 1.96907 14 3.78125 14H11.2188C13.0309 14 14.5 12.5309 14.5 10.7188V3.28125C14.5 1.46907 13.0309 0 11.2188 0Z" fill="url(#paint0_radial_138_2017)"/>
<path d="M11.2188 0H3.78125C1.96907 0 0.5 1.46907 0.5 3.28125V10.7188C0.5 12.5309 1.96907 14 3.78125 14H11.2188C13.0309 14 14.5 12.5309 14.5 10.7188V3.28125C14.5 1.46907 13.0309 0 11.2188 0Z" fill="url(#paint1_radial_138_2017)"/>
<path d="M7.50049 1.53125C6.01529 1.53125 5.82886 1.53776 5.24556 1.56428C4.66336 1.59097 4.26595 1.68312 3.91824 1.81836C3.55851 1.95803 3.25341 2.1449 2.94945 2.44896C2.64523 2.75297 2.45836 3.05807 2.31825 3.41764C2.18263 3.76545 2.09037 4.16303 2.06417 4.74496C2.03809 5.32831 2.03125 5.5148 2.03125 7.00005C2.03125 8.48531 2.03781 8.67114 2.06428 9.25444C2.09108 9.83664 2.18323 10.2341 2.31836 10.5818C2.45814 10.9415 2.64501 11.2466 2.94907 11.5505C3.25297 11.8548 3.55807 12.0421 3.91753 12.1817C4.26551 12.317 4.66298 12.4091 5.24507 12.4358C5.82842 12.4624 6.01469 12.4689 7.49984 12.4689C8.9852 12.4689 9.17103 12.4624 9.75433 12.4358C10.3365 12.4091 10.7344 12.317 11.0824 12.1817C11.4419 12.0421 11.7466 11.8548 12.0504 11.5505C12.3547 11.2466 12.5415 10.9415 12.6816 10.5819C12.8161 10.2341 12.9084 9.83653 12.9357 9.25455C12.9619 8.67125 12.9688 8.48531 12.9688 7.00005C12.9688 5.5148 12.9619 5.32842 12.9357 4.74507C12.9084 4.16287 12.8161 3.76551 12.6816 3.4178C12.5415 3.05807 12.3547 2.75297 12.0504 2.44896C11.7463 2.14479 11.442 1.95792 11.082 1.81841C10.7334 1.68312 10.3358 1.59091 9.75356 1.56428C9.17021 1.53776 8.98449 1.53125 7.4988 1.53125H7.50049ZM7.00989 2.51677C7.15552 2.51655 7.318 2.51677 7.50049 2.51677C8.9607 2.51677 9.13373 2.52202 9.71036 2.54822C10.2436 2.57261 10.533 2.6617 10.7257 2.73656C10.981 2.83566 11.1629 2.95416 11.3542 3.14562C11.5456 3.33703 11.6641 3.5193 11.7634 3.77453C11.8383 3.96703 11.9275 4.25644 11.9518 4.78964C11.978 5.36616 11.9837 5.5393 11.9837 6.9988C11.9837 8.4583 11.978 8.63149 11.9518 9.20795C11.9274 9.74116 11.8383 10.0306 11.7634 10.2231C11.6643 10.4783 11.5456 10.6601 11.3542 10.8514C11.1628 11.0428 10.9811 11.1612 10.7257 11.2604C10.5332 11.3356 10.2436 11.4244 9.71036 11.4488C9.13384 11.475 8.9607 11.4807 7.50049 11.4807C6.04023 11.4807 5.86714 11.475 5.29068 11.4488C4.75748 11.4242 4.46807 11.3351 4.27513 11.2603C4.01996 11.1611 3.83763 11.0427 3.64623 10.8513C3.45482 10.6599 3.33637 10.478 3.237 10.2227C3.16213 10.0301 3.07294 9.74072 3.04866 9.20751C3.02246 8.631 3.01721 8.45786 3.01721 6.99743C3.01721 5.53705 3.02246 5.36479 3.04866 4.78827C3.07305 4.25507 3.16213 3.96566 3.237 3.77289C3.33615 3.51766 3.45482 3.33539 3.64628 3.14398C3.83769 2.95258 4.01996 2.83407 4.27519 2.73476C4.46796 2.65956 4.75748 2.5707 5.29068 2.5462C5.79517 2.52339 5.99068 2.51655 7.00989 2.51541V2.51677ZM10.4197 3.4248C10.0574 3.4248 9.76346 3.71848 9.76346 4.08084C9.76346 4.44314 10.0574 4.73709 10.4197 4.73709C10.782 4.73709 11.076 4.44314 11.076 4.08084C11.076 3.71853 10.782 3.42459 10.4197 3.42459V3.4248ZM7.50049 4.19158C5.94955 4.19158 4.69207 5.44906 4.69207 7.00005C4.69207 8.55105 5.94955 9.80793 7.50049 9.80793C9.05148 9.80793 10.3085 8.55105 10.3085 7.00005C10.3085 5.44912 9.05138 4.19158 7.50038 4.19158H7.50049ZM7.50049 5.1771C8.50723 5.1771 9.32345 5.9932 9.32345 7.00005C9.32345 8.0068 8.50723 8.82301 7.50049 8.82301C6.4937 8.82301 5.67759 8.0068 5.67759 7.00005C5.67759 5.9932 6.4937 5.1771 7.50049 5.1771Z" fill="white"/>
<defs>
<radialGradient id="paint0_radial_138_2017" cx="0" cy="0" r="1" gradientUnits="userSpaceOnUse" gradientTransform="translate(4.21875 15.0783) rotate(-90) scale(13.875 12.9049)">
<stop stop-color="#FFDD55"/>
<stop offset="0.1" stop-color="#FFDD55"/>
<stop offset="0.5" stop-color="#FF543E"/>
<stop offset="1" stop-color="#C837AB"/>
</radialGradient>
<radialGradient id="paint1_radial_138_2017" cx="0" cy="0" r="1" gradientUnits="userSpaceOnUse" gradientTransform="translate(-1.84505 1.00849) rotate(78.681) scale(6.20222 25.5657)">
<stop stop-color="#3771C8"/>
<stop offset="0.128" stop-color="#3771C8"/>
<stop offset="1" stop-color="#6600FF" stop-opacity="0"/>
</radialGradient>
</defs>
</svg>
