<svg width="15" height="15" viewBox="0 0 15 15" fill="none" xmlns="http://www.w3.org/2000/svg">
<path fill-rule="evenodd" clip-rule="evenodd" d="M7.5 0C7.6705 0 7.83401 0.0677293 7.95457 0.188288C8.07513 0.308848 8.14286 0.472361 8.14286 0.642857V6.85714H14.3571C14.5276 6.85714 14.6912 6.92487 14.8117 7.04543C14.9323 7.16599 15 7.3295 15 7.5C15 7.6705 14.9323 7.83401 14.8117 7.95457C14.6912 8.07513 14.5276 8.14286 14.3571 8.14286H8.14286V14.3571C8.14286 14.5276 8.07513 14.6912 7.95457 14.8117C7.83401 14.9323 7.6705 15 7.5 15C7.3295 15 7.16599 14.9323 7.04543 14.8117C6.92487 14.6912 6.85714 14.5276 6.85714 14.3571V8.14286H0.642857C0.472361 8.14286 0.308848 8.07513 0.188288 7.95457C0.0677293 7.83401 0 7.6705 0 7.5C0 7.3295 0.0677293 7.16599 0.188288 7.04543C0.308848 6.92487 0.472361 6.85714 0.642857 6.85714H6.85714V0.642857C6.85714 0.472361 6.92487 0.308848 7.04543 0.188288C7.16599 0.0677293 7.3295 0 7.5 0Z" fill="white"/>
</svg>
